/* XPM */
static char * _2nd_xpm[] = {
"28 12 3 1",
" 	c #C71BC71BC71B",
".	c #E79DE39DE39D",
"X	c #000000000000",
"                            ",
"                            ",
"                            ",
"                            ",
"                            ",
"............................",
".XXX............X...........",
"X...X.X.XX...XXXX...........",
"....X.XX..X.X...X...........",
"..XX..X...X.X...X...........",
".X....X...X.X..XX...........",
"XXXXX.X...X..XX.X..........."};
