/* XPM */
static char * alpha_xpm[] = {
"28 12 3 1",
" 	c #000000000000",
".	c #C71BC71BC71B",
"X	c #E79DE39DE39D",
"  .. ..... ...  ............",
".. . .  .. ..... ...........",
".  . . . .  ...  ...........",
" . . .  .. . . . ...........",
".  . . ... . ..  ...........",
"XXXXXXXXXXXXXXXXXXXXXXXXXXXX",
"X   XX XXXX   XX XXX XX   XX",
" XXX X XXXX XX X XXX X XXX X",
" XXX X XXXX XX X     X XXX X",
"     X XXXX   XX XXX X     X",
" XXX X XXXX XXXX XXX X XXX X",
" XXX X    X XXXX XXX X XXX X"};
