/* XPM */
static char * clear_xpm[] = {
"28 12 3 1",
" 	c #C71BC71BC71B",
".	c #000000000000",
"X	c #E79DE39DE39D",
"...  .  .   ... ..          ",
" .  . . .   .   . .         ",
" .  . . .   ..  ..          ",
" .  . . .   .   . .         ",
" .   .  ... ... . .         ",
"XXXXXXXXXXXXXXXXXXXXXXXXXXXX",
"X...X.XXXX....XX...XX...XXXX",
".XXXX.XXXX.XXXX.XXX.X.XX.XXX",
".XXXX.XXXX...XX.XXX.X.XX.XXX",
".XXXX.XXXX.XXXX.....X...XXXX",
".XXXX.XXXX.XXXX.XXX.X.X.XXXX",
"X...X....X....X.XXX.X.XX.XXX"};
