/* XPM */
static char * custom_xpm[] = {
"28 12 3 1",
" 	c #C71BC71BC71B",
".	c #000000000000",
"X	c #E79DE39DE39D",
" ..  .  ...  .  .    .   .. ",
".   . .  .  . . .   . . .   ",
".   ...  .  ... .   . . ... ",
".   . .  .  . . .   . . . . ",
" .. . .  .  . . ...  .   .  ",
"XXXXXXXXXXXXXXXXXXXXXXXXXXXX",
"X...X.XXX.XX...X.....XXXXXXX",
".XXXX.XXX.X.XXXXXX.XXXXXXXXX",
".XXXX.XXX.XX..XXXX.XXXXXXXXX",
".XXXX.XXX.XXXX.XXX.XXXXXXXXX",
".XXXX.XXX.XXXX.XXX.XXXXXXXXX",
"X...XX...XX...XXXX.XXXXXXXXX"};
