/* XPM */
static char * dot_xpm[] = {
"28 12 3 1",
" 	c #E79DE39DE39D",
".	c #000000000000",
"X	c #FFFFFFFFFFFF",
" .                    ......",
" .                       .. ",
"                        ..  ",
" .                     ..   ",
" .                    ......",
"XXXXXXXXXXXXXXXXXXXXXXXXXXXX",
"XXXXXXXXXXXXXXXXXXXXXXXXXXXX",
"XXXXXXXXXXXXXXXXXXXXXXXXXXXX",
"XXXXXXXXXXXXXXXXXXXXXXXXXXXX",
"X..XXXXXXXXXXXXXXXXXXXXXXXXX",
"X..XXXXXXXXXXXXXXXXXXXXXXXXX",
"XXXXXXXXXXXXXXXXXXXXXXXXXXXX"};
