/* XPM */
static char *down_xpm[] = {
/* width height num_colors chars_per_pixel */
"    16    16        3            1",
/* colors */
". c #c7c7c7",
"# c #000000",
"a c #e7e7e7",
/* pixels */
"................",
".....#....#.....",
".....##..##.....",
".....#a##a#.....",
".....#aaaa#.....",
".....#aaaa#.....",
".....#aaaa#.....",
".....#aaaa#.....",
".#####aaaa#####.",
"..#aaaaaaaaaa#..",
"...#aaaaaaaa#...",
"....#aaaaaa#....",
".....#aaaa#.....",
"......#aa#......",
".......##.......",
"................"
};
