/* XPM */
static char * ee_xpm[] = {
"28 12 3 1",
" 	c #000000000000",
".	c #C71BC71BC71B",
"X	c #E79DE39DE39D",
" . .... ...............     ",
" . .  . ..............  ....",
". ..... ..............      ",
" . ...................  ..  ",
" . ....................     ",
"XXXXXXXXXXXXXXXXXXXXXXXXXXXX",
"    X    XXXXXXXXXXXXXXXXXXX",
" XXXX XXXXXXXXXXXXXXXXXXXXXX",
"   XX   XXXXXXXXXXXXXXXXXXXX",
" XXXX XXXXXXXXXXXXXXXXXXXXXX",
" XXXX XXXXXXXXXXXXXXXXXXXXXX",
"    X    XXXXXXXXXXXXXXXXXXX"};
