/* XPM */
static char * eight_xpm[] = {
"28 12 3 1",
" 	c #000000000000",
".	c #E79DE39DE39D",
"X	c #FFFFFFFFFFFF",
" . .   ..  .   .  ..  ....  ",
" . . ... .... .. . .   ..   ",
" . .  .. .... ..  ..        ",
" . . ... .... .. . .  .  .  ",
". ..   ..  .. .. . .  ....  ",
"XXXXXXXXXXXXXXXXXXXXXXXXXXXX",
"X   XXXXXXXXXXXXXXXXXXXXXXXX",
" XXX XXXXXXXXXXXXXXXXXXXXXXX",
"X   XXXXXXXXXXXXXXXXXXXXXXXX",
" XXX XXXXXXXXXXXXXXXXXXXXXXX",
" XXX XXXXXXXXXXXXXXXXXXXXXXX",
"X   XXXXXXXXXXXXXXXXXXXXXXXX"};
