/* XPM */
static char * enter_xpm[] = {
"28 12 3 1",
" 	c #000000000000",
".	c #C71BC71BC71B",
"X	c #E79DE39DE39D",
"   . .. .   .  .. . ........",
" ...  . .. .. . . . ........",
"  .. .  .. ..  ... .........",
" ... .. .. .. . .. .........",
"   . .. .. .. . .. .........",
"XXXXXXXXXXXXXXXXXXXXXXXXXXXX",
"    X XXX X     X     X   XX",
" XXXX  XX XXX XXX XXXXX XX X",
"   XX X X XXX XXX    XX XX X",
" XXXX XX  XXX XXX XXXXX   XX",
" XXXX XXX XXX XXX XXXXX X XX",
"    X XXX XXX XXX     X XX X"};
