/* XPM */
static char * f1_xpm[] = {
"21 10 3 1",
" 	c #FFFFFFFFFFFF",
".	c #000000000000",
"X	c #C71BC71BC71B",
"                     ",
"                     ",
"                     ",
".....XXX.XXXXXXXXXXXX",
".      ..            ",
".XXXXX.X.XXXXXXXXXXXX",
"....XXXX.XXXXXXXXXXXX",
".XXXXXXX.XXXXXXXXXXXX",
".XXXXXXX.XXXXXXXXXXXX",
"XXXXXXXXXXXXXXXXXXXXX"};
