/* XPM */
static char * f2_xpm[] = {
"21 10 3 1",
" 	c #FFFFFFFFFFFF",
".	c #000000000000",
"X	c #C71BC71BC71B",
"                     ",
"                     ",
"                     ",
".....XX...XXXXXXXXXXX",
".     .   .          ",
".XXXXXXXXX.XXXXXXXXXX",
"....XXX...XXXXXXXXXXX",
".XXXXX.XXXXXXXXXXXXXX",
".XXXXX.....XXXXXXXXXX",
"XXXXXXXXXXXXXXXXXXXXX"};
