/* XPM */
static char * f4_xpm[] = {
"21 10 3 1",
" 	c #FFFFFFFFFFFF",
".	c #000000000000",
"X	c #C71BC71BC71B",
"                     ",
"                     ",
"                     ",
".....XXX.XXXXXXXXXXXX",
".      .             ",
".XXXXX.XX.XXXXXXXXXXX",
"....XX.....XXXXXXXXXX",
".XXXXXXXX.XXXXXXXXXXX",
".XXXXXXXX.XXXXXXXXXXX",
"XXXXXXXXXXXXXXXXXXXXX"};
