/* XPM */
static char * f5_xpm[] = {
"21 10 3 1",
" 	c #FFFFFFFFFFFF",
".	c #000000000000",
"X	c #C71BC71BC71B",
"                     ",
"                     ",
"                     ",
".....X.....XXXXXXXXXX",
".     .              ",
".XXXXX....XXXXXXXXXXX",
"....XXXXXX.XXXXXXXXXX",
".XXXXX.XXX.XXXXXXXXXX",
".XXXXXX...XXXXXXXXXXX",
"XXXXXXXXXXXXXXXXXXXXX"};
