/* XPM */
static char * four_xpm[] = {
"28 12 3 1",
" 	c #E79DE39DE39D",
".	c #000000000000",
"X	c #FFFFFFFFFFFF",
" ..  .  .  .  ..       .... ",
".   . . .. . .        ..  ..",
".   . . . ..  .       ..  ..",
".   . . .  .   .      .. ...",
" ..  .  .  . ..        .....",
"XXXXXXXXXXXXXXXXXXXXXXXXXXXX",
"XX.XXXXXXXXXXXXXXXXXXXXXXXXX",
"X.XXXXXXXXXXXXXXXXXXXXXXXXXX",
".XX.XXXXXXXXXXXXXXXXXXXXXXXX",
".....XXXXXXXXXXXXXXXXXXXXXXX",
"XXX.XXXXXXXXXXXXXXXXXXXXXXXX",
"XXX.XXXXXXXXXXXXXXXXXXXXXXXX"};
