/* XPM */
static char * ln_xpm[] = {
"28 12 3 1",
" 	c #C71BC71BC71B",
".	c #000000000000",
"X	c #E79DE39DE39D",
" ..  . .              ......",
".  .  .               ..    ",
".... . .              ....  ",
".                     ..    ",
" ...                  ..    ",
"XXXXXXXXXXXXXXXXXXXXXXXXXXXX",
".XXXX.XXX.XXXXXXXXXXXXXXXXXX",
".XXXX..XX.XXXXXXXXXXXXXXXXXX",
".XXXX.X.X.XXXXXXXXXXXXXXXXXX",
".XXXX.XX..XXXXXXXXXXXXXXXXXX",
".XXXX.XXX.XXXXXXXXXXXXXXXXXX",
"....X.XXX.XXXXXXXXXXXXXXXXXX"};
