/* XPM */
static char * log_xpm[] = {
"28 12 3 1",
" 	c #C71BC71BC71B",
".	c #000000000000",
"X	c #E79DE39DE39D",
".  .  . .              .... ",
". . .  .              ..  ..",
". . . . .             ......",
". . .                 ..  ..",
".  .                  ..  ..",
"XXXXXXXXXXXXXXXXXXXXXXXXXXXX",
".XXXXX...XXX...XXXXXXXXXXXXX",
".XXXX.XXX.X.XXXXXXXXXXXXXXXX",
".XXXX.XXX.X.X..XXXXXXXXXXXXX",
".XXXX.XXX.X.XX.XXXXXXXXXXXXX",
".XXXX.XXX.X.XX.XXXXXXXXXXXXX",
"....XX...XXX...XXXXXXXXXXXXX"};
