/* XPM */
static char * nine_xpm[] = {
"28 12 3 1",
" 	c #E79DE39DE39D",
".	c #000000000000",
"X	c #FFFFFFFFFFFF",
" .. ..  .   . .       ..  ..",
".   . . .   . .       ... ..",
".   ..  .    .        ......",
".   .   .   . .       .. ...",
" .. .   ... . .       ..  ..",
"XXXXXXXXXXXXXXXXXXXXXXXXXXXX",
"X...XXXXXXXXXXXXXXXXXXXXXXXX",
".XXX.XXXXXXXXXXXXXXXXXXXXXXX",
"X....XXXXXXXXXXXXXXXXXXXXXXX",
"XXXX.XXXXXXXXXXXXXXXXXXXXXXX",
".XXX.XXXXXXXXXXXXXXXXXXXXXXX",
"X...XXXXXXXXXXXXXXXXXXXXXXXX"};
