/* XPM */
static char * one_xpm[] = {
"28 12 3 1",
" 	c #000000000000",
".	c #E79DE39DE39D",
"X	c #FFFFFFFFFFFF",
"  ... ...  .   .......  ..  ",
" . . . . ... .........  ..  ",
"  ..   .. ..  ........  ..  ",
" . . . ... . .........  ..  ",
"  .. . .  ..   ........    .",
"XXXXXXXXXXXXXXXXXXXXXXXXXXXX",
"XX XXXXXXXXXXXXXXXXXXXXXXXXX",
"X  XXXXXXXXXXXXXXXXXXXXXXXXX",
" X XXXXXXXXXXXXXXXXXXXXXXXXX",
"XX XXXXXXXXXXXXXXXXXXXXXXXXX",
"XX XXXXXXXXXXXXXXXXXXXXXXXXX",
"XX XXXXXXXXXXXXXXXXXXXXXXXXX"};
