/* XPM */
static char * parright_xpm[] = {
"28 12 3 1",
" 	c #000000000000",
".	c #C71BC71BC71B",
"X	c #E79DE39DE39D",
"   .....................  ..",
".. .....................  ..",
".. .....................  ..",
".. .....................  ..",
"   .....................  ..",
"XXXXXXXXXXXXXXXXXXXXXXXXXXXX",
" XXXXXXXXXXXXXXXXXXXXXXXXXXX",
"X XXXXXXXXXXXXXXXXXXXXXXXXXX",
"X XXXXXXXXXXXXXXXXXXXXXXXXXX",
"X XXXXXXXXXXXXXXXXXXXXXXXXXX",
"X XXXXXXXXXXXXXXXXXXXXXXXXXX",
" XXXXXXXXXXXXXXXXXXXXXXXXXXX"};
