/* XPM */
static char * power2_xpm[] = {
"28 12 3 1",
" 	c #000000000000",
".	c #C71BC71BC71B",
"X	c #E79DE39DE39D",
"  .      .............  ..  ",
". . .... .............  .  .",
".. ...................    ..",
".. ...................  .  .",
".. ...................  ..  ",
"XXXXXXXXXXXXXXXXXXXXXXXXXXXX",
"XXXXXX  XXXXXXXXXXXXXXXXXXXX",
" XXX XXX XXXXXXXXXXXXXXXXXXX",
"X X XXX XXXXXXXXXXXXXXXXXXXX",
"XX XXX   XXXXXXXXXXXXXXXXXXX",
"X X XXXXXXXXXXXXXXXXXXXXXXXX",
" XXX XXXXXXXXXXXXXXXXXXXXXXX"};
