/* XPM */
static char * seven_xpm[] = {
"28 12 3 1",
" 	c #000000000000",
".	c #E79DE39DE39D",
"X	c #FFFFFFFFFFFF",
" ... .. ..   .  .. . .  ....",
"  .  . . .. .. . . . .  ....",
" . . .   .. ..  ... ..  ....",
" ... . . .. .. . . . .  ....",
" ... . . .. .. . . . .      ",
"XXXXXXXXXXXXXXXXXXXXXXXXXXXX",
"     XXXXXXXXXXXXXXXXXXXXXXX",
"XXXX XXXXXXXXXXXXXXXXXXXXXXX",
"XXX XXXXXXXXXXXXXXXXXXXXXXXX",
"XXX XXXXXXXXXXXXXXXXXXXXXXXX",
"XX XXXXXXXXXXXXXXXXXXXXXXXXX",
"XX XXXXXXXXXXXXXXXXXXXXXXXXX"};
