/* XPM */
static char * sign_xpm[] = {
"28 12 3 1",
" 	c #E79DE39DE39D",
".	c #000000000000",
"X	c #FFFFFFFFFFFF",
" .  .  .  ..                ",
". . .. . .                  ",
"... . ..  .                 ",
". . .  .   .          ..  ..",
". . .  . ..           ......",
"XXXXXXXXXXXXXXXXXXXXXXXXXXXX",
"XXXXXXXXXXXXXXXXXXXXXXXXXXXX",
"XXXXXXXXXXXXXXXXXXXXXXXXXXXX",
"X....XXXXXXXXXXXXXXXXXXXXXXX",
"XXXXXXXXXXXXXXXXXXXXXXXXXXXX",
"XXXXXXXXXXXXXXXXXXXXXXXXXXXX",
"XXXXXXXXXXXXXXXXXXXXXXXXXXXX"};
