/* XPM */
static char * six_xpm[] = {
"28 12 3 1",
" 	c #E79DE39DE39D",
".	c #000000000000",
"X	c #FFFFFFFFFFFF",
" .. ... ..  .  .  ..   .....",
".    .  . . .. . .    ..    ",
" .   .  ..  . .. . .   .... ",
"  .  .  . . .  . . .      ..",
"..   .  . . .  .  ..  ..... ",
"XXXXXXXXXXXXXXXXXXXXXXXXXXXX",
"X....XXXXXXXXXXXXXXXXXXXXXXX",
".XXXXXXXXXXXXXXXXXXXXXXXXXXX",
"....XXXXXXXXXXXXXXXXXXXXXXXX",
".XXX.XXXXXXXXXXXXXXXXXXXXXXX",
".XXX.XXXXXXXXXXXXXXXXXXXXXXX",
"X...XXXXXXXXXXXXXXXXXXXXXXXX"};
