/* XPM */
static char * stat_xpm[] = {
"28 12 3 1",
" 	c #C71BC71BC71B",
".	c #000000000000",
"X	c #E79DE39DE39D",
" .. . .   . . . .  ...      ",
".   . .. .. . . .   .       ",
" .  . . . . . . .   .       ",
"  . . .   . . . .   .       ",
"..  . .   .  .  ... .       ",
"XXXXXXXXXXXXXXXXXXXXXXXXXXXX",
"X...X.....XX...XX.....XXXXXX",
".XXXXXX.XXX.XXX.XXX.XXXXXXXX",
"X..XXXX.XXX.XXX.XXX.XXXXXXXX",
"XXX.XXX.XXX.....XXX.XXXXXXXX",
"XXX.XXX.XXX.XXX.XXX.XXXXXXXX",
"...XXXX.XXX.XXX.XXX.XXXXXXXX"};
