/* XPM */
static char * sto_xpm[] = {
"28 12 3 1",
" 	c #000000000000",
".	c #C71BC71BC71B",
"X	c #E79DE39DE39D",
"  ...  . ...................",
" . . ... .............      ",
"  .. ... ...................",
" . . ... .............      ",
" . ..  .   .................",
"XXXXXXXXXXXXXXXXXXXXXXXXXXXX",
"X   X     XX   XXXXX XXXXXXX",
" XXXXXX XXX XXX XXXXX XXXXXX",
"X  XXXX XXX XXX X      XXXXX",
"XXX XXX XXX XXX XXXXX XXXXXX",
"XXX XXX XXX XXX XXXX XXXXXXX",
"   XXXX XXXX   XXXXXXXXXXXXX"};
