/* XPM */
static char * tan_xpm[] = {
"28 12 3 1",
" 	c #000000000000",
".	c #C71BC71BC71B",
"X	c #E79DE39DE39D",
"   .. .. .. .... .....     .",
". .. . .  . .  . .....  ..  ",
". ..   . .  .... .....  ..  ",
". .. . . .. ..........  ..  ",
". .. . . .. ..........     .",
"XXXXXXXXXXXXXXXXXXXXXXXXXXXX",
"     XX   XXX XXX XXXXXXXXXX",
"XX XXX XXX XX  XX XXXXXXXXXX",
"XX XXX XXX XX X X XXXXXXXXXX",
"XX XXX     XX XX  XXXXXXXXXX",
"XX XXX XXX XX XXX XXXXXXXXXX",
"XX XXX XXX XX XXX XXXXXXXXXX"};
